<svg width="278" height="77" viewBox="0 0 278 77" fill="none" xmlns="http://www.w3.org/2000/svg">
<g clip-path="url(#clip0_16_5)">
<path d="M3.2 64V19.2H18.304C28.032 19.2 33.28 24 33.28 30.976C33.28 35.264 31.552 38.336 26.048 40.384C33.344 42.112 35.776 46.08 35.776 51.648C35.776 59.136 29.632 64 19.904 64H3.2ZM12.16 55.936H19.072C23.936 55.936 26.688 54.144 26.688 50.24C26.688 46.976 23.936 44.992 19.072 44.992H12.16V55.936ZM12.16 37.696H17.472C22.336 37.696 24.192 35.968 24.192 32.384C24.192 29.312 22.336 27.2 17.472 27.2H12.16V37.696ZM54.1655 64.832C45.0135 64.832 37.7175 57.088 37.7175 47.488C37.7175 37.888 45.0135 30.016 54.1655 30.016C59.9255 30.016 62.9335 32.384 64.7255 35.968V30.72H73.3015V64H64.9175V58.56C63.1255 62.336 60.1175 64.832 54.1655 64.832ZM46.3575 47.424C46.3575 52.48 50.0695 57.024 55.5735 57.024C61.2695 57.024 64.9175 52.672 64.9175 47.488C64.9175 42.304 61.2695 37.824 55.5735 37.824C50.0695 37.824 46.3575 42.24 46.3575 47.424ZM91.043 64C84.451 64 80.867 60.928 80.867 53.696V38.08H76.195V30.72H80.867V24L89.507 23.104V30.72H96.547V38.08H89.507V53.248C89.507 55.36 90.531 56.32 92.195 56.32H95.779V64H91.043ZM114.432 64.832C104.896 64.832 97.28 57.024 97.28 47.36C97.28 37.696 104.704 29.952 114.88 29.888C120.96 29.824 125.888 32.192 128.704 36.096L122.048 41.536C120.512 39.232 117.952 37.76 115.008 37.76C109.504 37.76 105.92 42.176 105.92 47.36C105.92 52.544 109.696 56.96 115.2 56.96C118.528 56.96 120.704 55.296 122.432 52.992L128.704 58.432C125.568 62.464 120.96 64.832 114.432 64.832ZM132.123 64V17.28H140.763V35.328C142.555 31.744 145.819 29.952 150.811 29.952C157.979 29.952 163.483 35.264 163.483 43.648V64H154.843V45.76C154.843 40 151.963 37.504 147.675 37.504C144.027 37.504 140.763 40 140.763 45.76V64H132.123ZM168.95 64V19.2H184.054C194.102 19.2 200.246 23.936 200.246 33.344C200.246 42.816 194.102 47.744 184.054 47.744H177.91V64H168.95ZM177.91 39.68H183.542C188.406 39.68 191.158 37.696 191.158 33.408C191.158 29.184 188.406 27.2 183.542 27.2H177.91V39.68ZM203.435 64V30.72H211.819V37.056C212.971 32.256 216.363 29.632 222.123 29.952V38.08H220.907C215.915 38.08 212.075 41.408 212.075 46.976V64H203.435ZM239.821 64.832C229.517 64.832 222.093 57.024 222.093 47.424C222.093 37.824 229.517 29.952 239.821 29.952C250.125 29.952 257.549 37.824 257.549 47.424C257.549 57.024 250.125 64.832 239.821 64.832ZM230.733 47.424C230.733 52.608 234.317 56.96 239.821 56.96C245.325 56.96 248.909 52.608 248.909 47.424C248.909 42.24 245.325 37.824 239.821 37.824C234.317 37.824 230.733 42.24 230.733 47.424ZM272.168 64C265.576 64 261.992 60.928 261.992 53.696V38.08H257.32V30.72H261.992V24L270.632 23.104V30.72H277.672V38.08H270.632V53.248C270.632 55.36 271.656 56.32 273.32 56.32H276.904V64H272.168Z" fill="white"/>
</g>
<defs>
<clipPath id="clip0_16_5">
<rect width="278" height="77" fill="white"/>
</clipPath>
</defs>
</svg>
