<svg width="286" height="132" viewBox="0 0 286 132" fill="none" xmlns="http://www.w3.org/2000/svg">
<path d="M7.2 92V47.2H22.304C32.032 47.2 37.28 52 37.28 58.976C37.28 63.264 35.552 66.336 30.048 68.384C37.344 70.112 39.776 74.08 39.776 79.648C39.776 87.136 33.632 92 23.904 92H7.2ZM16.16 83.936H23.072C27.936 83.936 30.688 82.144 30.688 78.24C30.688 74.976 27.936 72.992 23.072 72.992H16.16V83.936ZM16.16 65.696H21.472C26.336 65.696 28.192 63.968 28.192 60.384C28.192 57.312 26.336 55.2 21.472 55.2H16.16V65.696ZM58.1655 92.832C49.0135 92.832 41.7175 85.088 41.7175 75.488C41.7175 65.888 49.0135 58.016 58.1655 58.016C63.9255 58.016 66.9335 60.384 68.7255 63.968V58.72H77.3015V92H68.9175V86.56C67.1255 90.336 64.1175 92.832 58.1655 92.832ZM50.3575 75.424C50.3575 80.48 54.0695 85.024 59.5735 85.024C65.2695 85.024 68.9175 80.672 68.9175 75.488C68.9175 70.304 65.2695 65.824 59.5735 65.824C54.0695 65.824 50.3575 70.24 50.3575 75.424ZM95.043 92C88.451 92 84.867 88.928 84.867 81.696V66.08H80.195V58.72H84.867V52L93.507 51.104V58.72H100.547V66.08H93.507V81.248C93.507 83.36 94.531 84.32 96.195 84.32H99.779V92H95.043ZM118.432 92.832C108.896 92.832 101.28 85.024 101.28 75.36C101.28 65.696 108.704 57.952 118.88 57.888C124.96 57.824 129.888 60.192 132.704 64.096L126.048 69.536C124.512 67.232 121.952 65.76 119.008 65.76C113.504 65.76 109.92 70.176 109.92 75.36C109.92 80.544 113.696 84.96 119.2 84.96C122.528 84.96 124.704 83.296 126.432 80.992L132.704 86.432C129.568 90.464 124.96 92.832 118.432 92.832ZM136.123 92V45.28H144.763V63.328C146.555 59.744 149.819 57.952 154.811 57.952C161.979 57.952 167.483 63.264 167.483 71.648V92H158.843V73.76C158.843 68 155.963 65.504 151.675 65.504C148.027 65.504 144.763 68 144.763 73.76V92H136.123ZM172.95 92V47.2H188.054C198.102 47.2 204.246 51.936 204.246 61.344C204.246 70.816 198.102 75.744 188.054 75.744H181.91V92H172.95ZM181.91 67.68H187.542C192.406 67.68 195.158 65.696 195.158 61.408C195.158 57.184 192.406 55.2 187.542 55.2H181.91V67.68ZM207.435 92V58.72H215.819V65.056C216.971 60.256 220.363 57.632 226.123 57.952V66.08H224.907C219.915 66.08 216.075 69.408 216.075 74.976V92H207.435ZM243.821 92.832C233.517 92.832 226.093 85.024 226.093 75.424C226.093 65.824 233.517 57.952 243.821 57.952C254.125 57.952 261.549 65.824 261.549 75.424C261.549 85.024 254.125 92.832 243.821 92.832ZM234.733 75.424C234.733 80.608 238.317 84.96 243.821 84.96C249.325 84.96 252.909 80.608 252.909 75.424C252.909 70.24 249.325 65.824 243.821 65.824C238.317 65.824 234.733 70.24 234.733 75.424ZM276.168 92C269.576 92 265.992 88.928 265.992 81.696V66.08H261.32V58.72H265.992V52L274.632 51.104V58.72H281.672V66.08H274.632V81.248C274.632 83.36 275.656 84.32 277.32 84.32H280.904V92H276.168Z" fill="white"/>
</svg>
